<svg xmlns="http://www.w3.org/2000/svg" xmlns:xlink="http://www.w3.org/1999/xlink" width="222.8" height="323.6" viewBox="0 0 167.1 242.7"><path d="M166.8 235.5c0 3.8-3 7-7 7H7c-3.8 0-7-3-7-7V7c0-3.8 3-7 7-7h153c3.8 0 7 3 7 7v228.4z" fill="#fff" stroke-width=".5" stroke="#000"/><text xml:space="preserve" x="7.8" y="26.4" font-size="32" letter-spacing="0" word-spacing="0" fill="#df0000" font-family="Bitstream Vera Sans"><tspan x="7.8" y="26.4" font-weight="normal" font-family="Arial">3</tspan></text><text xml:space="preserve" x="-159.5" y="-216.7" transform="scale(-1)" font-size="32" letter-spacing="0" word-spacing="0" fill="#df0000" font-family="Bitstream Vera Sans"><tspan x="-159.5" y="-216.7" font-weight="normal" font-family="Arial">3</tspan></text><g fill="#df0000"><use xlink:href="#B"/><use xlink:href="#B" x="133.6" y="154.3"/><path d="M91.3 179.8c-5.5-7.4-8.4-15-8.4-15s-3 7.5-8.4 15S62.2 192 62.2 192a61 61 0 0 0 12.3 12.2 72 72 0 0 1 8.4 15s3-7.5 8.4-15c5.5-7.4 12.3-12.2 12.3-12.2s-6.8-4.8-12.3-12.2zm0-141.2c-5.5-7.4-8.4-15-8.4-15s-3 7.5-8.4 15-12.3 12.2-12.3 12.2A61 61 0 0 0 74.5 63a72 72 0 0 1 8.4 15s3-7.5 8.4-15c5.5-7.4 12.3-12.2 12.3-12.2S96.8 46 91.3 38.6zm0 69.7c-5.5-7.4-8.4-15-8.4-15s-3 7.5-8.4 15-12.3 12.2-12.3 12.2a61 61 0 0 0 12.3 12.2 72 72 0 0 1 8.4 15s3-7.5 8.4-15c5.5-7.4 12.3-12.2 12.3-12.2s-6.8-4.8-12.3-12.2z"/></g><defs ><path id="B" d="M21.8 37.2c-3-4.2-4.8-8.5-4.8-8.5s-1.7 4.3-4.8 8.5-7 7-7 7a35 35 0 0 0 7 7 41 41 0 0 1 4.8 8.5s1.7-4.3 4.8-8.5 7-7 7-7-4-2.8-7-7z"/></defs></svg>